# File created by Blade
# Date/Time:  Mon Nov 18 18:33:23 2013
# Frame Rate: 100.000 fps
#------------------------------------------------------
:FULLY-SPECIFIED
:DEGREES
160
root 53.454128 -2.167746 51.447618 -2.373643 1.575257 -123.614181
Spine 11.968640 -1.455932 -0.439707
Spine1 3.124799 1.030119 -1.284144
Spine2 0.702569 -2.213166 -1.856408
NeckDummy 0.001986 -0.065512 -0.020232 -1.420704 1.572644 -0.695670
Neck 16.505575 0.359434 26.213215
Head -0.275928 0.337932 0.231568 -34.863799 -3.876494 -0.488424
LeftShoulderDummy -0.068231 -0.057548 0.028687 -1.396547 1.448944 -0.474818
LeftShoulder 7.610857 -3.927283 14.105056
LeftArm 19.713837 48.245125 28.045583
LeftForeArm 89.308746
LeftForeArmRoll -35.113353
LeftHand -9.308043 5.638118 -4.251649
LeftHandThumb1 16.600818 12.742063
LeftHandIndex1 14.855429 43.677848
LeftHandPinky1 13.950201 48.270540
RightShoulderDummy -0.045699 -0.033776 0.065594 -1.445663 -1.563036 0.681416
RightShoulder 4.266623 6.182141 16.886087
RightArm -33.315452 72.621497 1.896937
RightForeArm 113.328707
RightForeArmRoll 4.907598
RightHand -17.642915 -16.514826 11.583756
RightHandThumb1 -1.406251 13.651020
RightHandIndex1 13.679347 59.334941
RightHandPinky1 19.193863 69.100115
LeftUpLeg 5.498361 19.946687 -29.829198
LeftLeg 48.305975
LeftFoot 0.582002 -1.056610 -0.682346 -12.820452 9.896827 -9.302694
LeftToeBase -1.606928
RightUpLeg 14.244161 12.532280 -21.923927
RightLeg 57.408807
RightFoot -0.418160 0.458643 0.246646 -0.950307 5.748380 -29.357539
RightToeBase -1.351848
161
root 53.447875 -2.173477 51.475324 -2.360788 1.551610 -123.706465
Spine 12.009745 -1.411966 -0.436579
Spine1 3.132190 1.051402 -1.262172
Spine2 0.677946 -2.215381 -1.814727
NeckDummy 0.001644 -0.065939 -0.019296 -1.415987 1.541598 -0.688710
Neck 16.396866 0.306660 26.243157
Head -0.279614 0.335845 0.229184 -34.807408 -3.885605 -0.521886
LeftShoulderDummy -0.068831 -0.058188 0.029820 -1.392286 1.418210 -0.466658
LeftShoulder 7.564515 -3.907171 14.144513
LeftArm 19.802249 48.331905 28.171109
LeftForeArm 89.318461
LeftForeArmRoll -35.194455
LeftHand -9.307688 5.743343 -4.326167
LeftHandThumb1 16.647827 12.776093
LeftHandIndex1 14.891404 43.818145
LeftHandPinky1 14.031305 48.277963
RightShoulderDummy -0.045795 -0.034403 0.065712 -1.441040 -1.531957 0.674755
RightShoulder 4.294153 6.205435 16.805881
RightArm -33.332758 72.566400 1.804885
RightForeArm 113.283814
RightForeArmRoll 4.617994
RightHand -17.678368 -16.354489 11.519677
RightHandThumb1 -1.510252 13.661802
RightHandIndex1 13.828150 59.000319
RightHandPinky1 19.215189 68.620783
LeftUpLeg 5.465316 19.928073 -29.849128
LeftLeg 48.409453
LeftFoot 0.579157 -1.054272 -0.676984 -12.866656 9.999183 -9.503291
LeftToeBase -1.479364
RightUpLeg 14.197112 12.578429 -22.043307
RightLeg 57.498526
RightFoot -0.414806 0.459329 0.250494 -0.986523 5.659846 -29.175249
RightToeBase -1.481808
162
root 53.443190 -2.178880 51.509571 -2.321320 1.571869 -123.785082
Spine 12.032012 -1.401275 -0.429378
Spine1 3.142813 1.054600 -1.239644
Spine2 0.661584 -2.202073 -1.771845
NeckDummy 0.001184 -0.066813 -0.018631 -1.409406 1.507871 -0.678673
Neck 16.264767 0.243428 26.279876
Head -0.279895 0.335451 0.227497 -34.739930 -3.934897 -0.525293
LeftShoulderDummy -0.069033 -0.058984 0.030817 -1.385988 1.384341 -0.456205
LeftShoulder 7.530314 -3.915536 14.164336
LeftArm 19.867717 48.381031 28.284085
LeftForeArm 89.350867
LeftForeArmRoll -35.274073
LeftHand -9.320523 5.762950 -4.329870
LeftHandThumb1 16.677872 12.765890
LeftHandIndex1 14.871559 43.802890
LeftHandPinky1 14.004187 48.276383
RightShoulderDummy -0.046617 -0.035231 0.065808 -1.433952 -1.498697 0.663057
RightShoulder 4.197249 6.199024 16.764265
RightArm -33.838772 72.473595 1.326552
RightForeArm 113.184322
RightForeArmRoll 4.312712
RightHand -17.721207 -16.861906 11.798259
RightHandThumb1 -1.278841 13.783490
RightHandIndex1 13.784454 59.561151
RightHandPinky1 19.119582 69.120522
LeftUpLeg 5.469372 19.838352 -29.879424
LeftLeg 48.445572
LeftFoot 0.582775 -1.051059 -0.679763 -12.785760 10.145315 -9.684172
LeftToeBase -1.437626
RightUpLeg 14.149342 12.700184 -22.253355
RightLeg 57.657234
RightFoot -0.410710 0.462473 0.256354 -1.006832 5.567652 -28.910543
RightToeBase -1.693008
163
root 53.438014 -2.184245 51.544020 -2.259287 1.577436 -123.903522
Spine 12.063654 -1.388035 -0.394941
Spine1 3.144115 1.055975 -1.155374
Spine2 0.599686 -2.136802 -1.805314
NeckDummy 0.001193 -0.067649 -0.016655 -1.405256 1.525821 -0.664500
Neck 16.138042 0.139796 26.270366
Head -0.282400 0.332840 0.225949 -34.685681 -3.940723 -0.562332
LeftShoulderDummy -0.068683 -0.059522 0.032272 -1.381790 1.401717 -0.440789
LeftShoulder 7.551222 -3.977282 14.205166
LeftArm 19.917033 48.387883 28.437611
LeftForeArm 89.377911
LeftForeArmRoll -35.342419
LeftHand -9.345926 5.777775 -4.368586
LeftHandThumb1 16.629767 12.762763
LeftHandIndex1 14.954698 43.582220
LeftHandPinky1 14.046990 48.220868
RightShoulderDummy -0.045545 -0.036523 0.067934 -1.429757 -1.517117 0.650602
RightShoulder 4.313599 6.156572 16.778493
RightArm -33.955213 72.202275 1.143618
RightForeArm 113.174151
RightForeArmRoll 4.150757
RightHand -17.579738 -16.447990 12.019733
RightHandThumb1 -0.904057 13.528252
RightHandIndex1 13.475750 59.915370
RightHandPinky1 18.764156 68.812838
LeftUpLeg 5.490598 19.787230 -29.904790
LeftLeg 48.506763
LeftFoot 0.577531 -1.049022 -0.672118 -12.646836 10.305111 -9.940576
LeftToeBase -1.425297
RightUpLeg 14.100117 12.818946 -22.531844
RightLeg 57.867366
RightFoot -0.398353 0.470039 0.262293 -0.958669 5.456685 -28.598261
RightToeBase -1.968962
